<svg width="20" height="20" viewBox="0 0 20 20" fill="none" xmlns="http://www.w3.org/2000/svg">
<path d="M14.8812 2.34543C12.81 3.17401 10.5917 3.7132 8.27596 3.91302C7.60847 3.97061 6.93276 4.00002 6.25 4.00002H5.5C2.60051 4.00002 0.25 6.35052 0.25 9.25002C0.25 11.8496 2.13945 14.0079 4.61997 14.4266C4.95424 15.7956 5.41805 17.1138 5.99764 18.3674C6.46171 19.3712 7.67181 19.6875 8.58029 19.163L9.2366 18.784C10.1167 18.2759 10.4023 17.1913 10.0087 16.3159C9.77382 15.7935 9.56422 15.2574 9.38142 14.709C11.2988 14.9671 13.1419 15.4588 14.8812 16.1546C15.6069 13.9852 16 11.6635 16 9.25C16 6.83648 15.6069 4.51478 14.8812 2.34543Z" fill="#F53641"/>
<path d="M16.2606 1.74072C17.0641 4.09642 17.5 6.6223 17.5 9.25C17.5 11.8777 17.0641 14.4036 16.2606 16.7593V16.7593C16.2054 16.9211 16.1487 17.0821 16.0901 17.2422C15.9477 17.6312 16.1476 18.0619 16.5366 18.2043C16.9256 18.3467 17.3563 18.1468 17.4987 17.7578C17.6387 17.3753 17.7696 16.9884 17.891 16.5973C18.4147 14.9106 18.7627 13.1469 18.914 11.3278C19.431 10.7893 19.75 10.0567 19.75 9.25002C19.75 8.44337 19.431 7.71073 18.914 7.17228C18.7627 5.35319 18.4147 3.58948 17.891 1.90274C17.7696 1.51165 17.6387 1.12472 17.4987 0.742214C17.3563 0.353241 16.9256 0.15334 16.5366 0.295723C16.1476 0.438105 15.9477 0.868854 16.0901 1.25783C16.1487 1.41795 16.2055 1.57898 16.2606 1.74072V1.74072Z" fill="#F53641"/>
</svg>
